# xmcd
#
# Track frame offsets:
#	150
#	13031
#	27553
#	36322
#	55392
#	68385
#	79265
#	91615
#	107067
#	122496
#	136423
#	152043
#	168826
#	184025
#	201493
#
# Disc length: 2906 seconds
#
# Revision: 0
# Processed by: cddbd v1.5.2PL0 Copyright (c) Steve Scherf et al.
# Submitted via: dBpowerAMP V4.0
#
DISCID=c20b580f
DTITLE=Blue Magic - Especially For You
DYEAR=1900
DGENRE=Blues
TTITLE0=Mi Vida Loca
TTITLE1=Blue Magic
TTITLE2=So What's New
TTITLE3=Nancy Miles
TTITLE4=Let It Be Me
TTITLE5=Every Second
TTITLE6=The Answer To Everything
TTITLE7=Somewhere In My Broken Heart
TTITLE8=Islands In The Stream
TTITLE9=The Carnival Is Over
TTITLE10=There's A Heartache Following Me
TTITLE11=The Water Is Wide
TTITLE12=Heaven Around Galway Bay
TTITLE13=But I Do
TTITLE14=River Deep, Mountain High
EXTD=
EXTT0=
EXTT1=
EXTT2=
EXTT3=
EXTT4=
EXTT5=
EXTT6=
EXTT7=
EXTT8=
EXTT9=
EXTT10=
EXTT11=
EXTT12=
EXTT13=
EXTT14=
PLAYORDER=
